<?xml version="1.0" standalone="no"?>
<!DOCTYPE svg PUBLIC "-//W3C//DTD SVG 20010904//EN"
 "http://www.w3.org/TR/2001/REC-SVG-20010904/DTD/svg10.dtd">
<svg version="1.0" xmlns="http://www.w3.org/2000/svg"
 width="700.000000pt" height="700.000000pt" viewBox="0 0 700.000000 700.000000"
 preserveAspectRatio="xMidYMid meet">
<metadata>
Created by potrace 1.14, written by Peter Selinger 2001-2017
</metadata>
<g transform="translate(0.000000,700.000000) scale(0.100000,-0.100000)"
fill="#000000" stroke="none">
<path d="M2445 6404 c-143 -17 -291 -58 -403 -110 -29 -13 -55 -24 -57 -24 -2
0 -44 -23 -92 -52 -392 -230 -653 -619 -713 -1063 -10 -76 -14 -308 -6 -350 3
-17 14 -88 21 -135 18 -119 100 -329 183 -468 29 -49 108 -160 121 -172 3 -3
29 -30 56 -60 203 -223 491 -384 800 -446 94 -19 351 -25 465 -11 236 29 500
140 696 293 433 337 639 874 543 1418 -12 70 -54 217 -76 266 -96 219 -184
351 -333 500 -320 320 -754 469 -1205 414z m295 -579 c195 -26 376 -118 517
-264 117 -120 208 -302 231 -460 9 -60 9 -234 0 -291 -10 -66 -55 -196 -89
-258 -69 -126 -143 -213 -250 -292 -384 -285 -908 -217 -1208 155 -117 146
-181 320 -187 515 -9 308 122 568 379 750 59 42 184 103 236 116 9 2 36 9 61
15 88 22 207 27 310 14z"/>
<path d="M4583 6365 c-86 -26 -149 -83 -186 -170 -23 -54 -27 -108 -13 -169
16 -68 36 -104 83 -147 47 -45 55 -49 173 -89 308 -103 522 -339 594 -655 20
-90 16 -303 -8 -390 -46 -169 -111 -280 -236 -405 -112 -112 -199 -165 -360
-220 -134 -46 -178 -79 -221 -166 -27 -54 -32 -77 -32 -129 2 -160 129 -287
287 -288 110 0 362 99 518 204 227 153 408 365 520 609 123 267 161 570 109
861 -54 301 -189 558 -405 774 -127 127 -250 215 -399 285 -199 94 -329 123
-424 95z"/>
<path d="M1947 2914 c-1 -1 -32 -4 -69 -8 -255 -24 -553 -148 -753 -314 -106
-87 -228 -222 -304 -334 -54 -80 -129 -238 -165 -348 -63 -191 -70 -265 -70
-710 0 -382 1 -397 21 -442 28 -60 85 -117 148 -148 65 -31 169 -32 235 -2 59
25 120 86 150 148 24 48 24 53 26 407 2 377 5 425 30 522 23 86 106 250 164
322 63 78 163 162 255 214 85 47 230 96 316 105 81 9 1340 9 1394 0 237 -39
424 -146 565 -322 82 -101 143 -227 170 -347 21 -95 22 -128 24 -487 2 -362 2
-365 26 -414 73 -151 247 -213 394 -141 63 32 103 74 138 145 22 44 22 53 22
425 0 403 -3 454 -34 594 -119 536 -549 973 -1077 1096 -158 37 -192 38 -901
40 -386 1 -703 1 -705 -1z"/>
<path d="M5215 2869 c-120 -15 -211 -96 -248 -220 -10 -34 -11 -58 -2 -109 13
-76 31 -114 78 -163 40 -40 67 -54 192 -98 149 -52 228 -101 336 -208 115
-114 188 -237 228 -380 30 -108 33 -157 36 -534 1 -310 4 -357 19 -391 105
-235 424 -242 536 -11 l24 50 0 375 c0 206 -3 402 -7 435 -55 479 -344 901
-768 1125 -173 90 -337 140 -424 129z"/>
</g>
</svg>
